<svg width="8" height="8" viewBox="0 0 8 8" fill="none" xmlns="http://www.w3.org/2000/svg">
<path d="M2.6004 7.38374C1.71707 7.38374 0.99707 6.66707 0.99707 5.7804V4.83374C0.99707 4.6104 1.21707 4.4604 1.42707 4.53374C1.51374 4.56374 1.6004 4.58374 1.6904 4.59707C1.7304 4.60374 1.7704 4.6104 1.8104 4.6104C1.8604 4.61707 1.91374 4.6204 1.96374 4.6204C2.33374 4.6204 2.7004 4.48374 2.9904 4.24707C3.26707 4.48374 3.62374 4.6204 4.00374 4.6204C4.38374 4.6204 4.73707 4.4904 5.01374 4.2504C5.3004 4.48374 5.6604 4.6204 6.02707 4.6204C6.08374 4.6204 6.14374 4.61707 6.19707 4.6104C6.23707 4.60707 6.2704 4.60374 6.30707 4.59707C6.40707 4.58374 6.49707 4.55707 6.58707 4.52707C6.79374 4.45707 7.0104 4.6104 7.0104 4.82707V5.7804C7.0104 6.66374 6.29374 7.38374 5.40707 7.38374H2.6004Z" fill="#9A9A9A"/>
<path d="M7.32694 2.86288L7.23361 1.97621C7.10028 1.00954 6.66028 0.616211 5.72028 0.616211H4.96694H4.49361H3.52028H3.04361H2.27361C1.33361 0.616211 0.896943 1.00954 0.760276 1.98621L0.67361 2.86621C0.640276 3.20954 0.73361 3.54288 0.936943 3.80288C1.18028 4.11954 1.55361 4.29954 1.97028 4.29954C2.37361 4.29954 2.76028 4.09621 3.00361 3.77288C3.22028 4.09621 3.59361 4.29954 4.00694 4.29954C4.42028 4.29954 4.78361 4.10621 5.00361 3.78621C5.25028 4.10288 5.63028 4.29954 6.03028 4.29954C6.45694 4.29954 6.84028 4.10954 7.08028 3.77621C7.27361 3.51954 7.36028 3.19621 7.32694 2.86288ZM4.50028 2.57621H4.25028V2.83621C4.25028 2.97621 4.13694 3.08621 4.00028 3.08621C3.86361 3.08621 3.75028 2.97621 3.75028 2.83621V2.57621H3.50028C3.36361 2.57621 3.25028 2.46621 3.25028 2.32621C3.25028 2.18954 3.36361 2.07621 3.50028 2.07621H3.75028V1.83954C3.75028 1.70288 3.86361 1.58954 4.00028 1.58954C4.13694 1.58954 4.25028 1.70288 4.25028 1.83954V2.07621H4.50028C4.63694 2.07621 4.75028 2.18954 4.75028 2.32621C4.75028 2.46621 4.63694 2.57621 4.50028 2.57621Z" fill="#9A9A9A"/>
</svg>
