<svg width="7" height="8" viewBox="0 0 7 8" fill="none" xmlns="http://www.w3.org/2000/svg">
<path d="M6.24398 0.882368L4.05547 0.062671C3.82866 -0.0208903 3.45861 -0.0208903 3.2318 0.062671L1.04329 0.882368C0.6215 1.04153 0.279297 1.53494 0.279297 1.98458V5.20766C0.279297 5.52997 0.49019 5.95573 0.748832 6.14673L2.93734 7.78214C3.32332 8.07262 3.95599 8.07262 4.34197 7.78214L6.53048 6.14673C6.78912 5.95175 7.00001 5.52997 7.00001 5.20766V1.98458C7.00399 1.53494 6.66179 1.04153 6.24398 0.882368ZM5.02637 3.11067L3.31536 4.82169C3.25567 4.88137 3.18007 4.90923 3.10446 4.90923C3.02886 4.90923 2.95326 4.88137 2.89357 4.82169L2.25691 4.17707C2.14152 4.06168 2.14152 3.87068 2.25691 3.75528C2.37231 3.63989 2.56331 3.63989 2.6787 3.75528L3.10844 4.18503L4.60857 2.6849C4.72396 2.56951 4.91496 2.56951 5.03035 2.6849C5.14575 2.8003 5.14575 2.99528 5.02637 3.11067Z" fill="#9A9A9A"/>
</svg>
