<svg width="8" height="8" viewBox="0 0 8 8" fill="none" xmlns="http://www.w3.org/2000/svg">
<path d="M4.66699 0.973659V3.74366C4.66699 4.08366 4.39033 4.36033 4.05033 4.36033H1.00033C0.816992 4.36033 0.666992 4.21033 0.666992 4.02699V1.89699C0.666992 1.21699 1.21699 0.666992 1.89699 0.666992H4.35699C4.53033 0.666992 4.66699 0.803659 4.66699 0.973659Z" fill="#9A9A9A"/>
<path d="M7.16699 5.16699C7.26032 5.16699 7.33366 5.24033 7.33366 5.33366V5.66699C7.33366 6.22033 6.88699 6.66699 6.33366 6.66699C6.33366 6.11699 5.88366 5.66699 5.33366 5.66699C4.78366 5.66699 4.33366 6.11699 4.33366 6.66699H3.66699C3.66699 6.11699 3.21699 5.66699 2.66699 5.66699C2.11699 5.66699 1.66699 6.11699 1.66699 6.66699C1.11366 6.66699 0.666992 6.22033 0.666992 5.66699V5.00033C0.666992 4.81699 0.816992 4.66699 1.00033 4.66699H4.16699C4.62699 4.66699 5.00033 4.29366 5.00033 3.83366V2.00033C5.00033 1.81699 5.15033 1.66699 5.33366 1.66699H5.61366C5.85366 1.66699 6.07366 1.79699 6.19366 2.00366L6.40699 2.37699C6.43699 2.43033 6.39699 2.50033 6.33366 2.50033C5.87366 2.50033 5.50033 2.87366 5.50033 3.33366V4.33366C5.50033 4.79366 5.87366 5.16699 6.33366 5.16699H7.16699Z" fill="#9A9A9A"/>
<path d="M2.66667 7.33333C3.03486 7.33333 3.33333 7.03486 3.33333 6.66667C3.33333 6.29848 3.03486 6 2.66667 6C2.29848 6 2 6.29848 2 6.66667C2 7.03486 2.29848 7.33333 2.66667 7.33333Z" fill="#9A9A9A"/>
<path d="M5.33366 7.33333C5.70185 7.33333 6.00033 7.03486 6.00033 6.66667C6.00033 6.29848 5.70185 6 5.33366 6C4.96547 6 4.66699 6.29848 4.66699 6.66667C4.66699 7.03486 4.96547 7.33333 5.33366 7.33333Z" fill="#9A9A9A"/>
<path d="M7.33333 4.17667V4.66667H6.33333C6.15 4.66667 6 4.51667 6 4.33333V3.33333C6 3.15 6.15 3 6.33333 3H6.76333L7.24667 3.84667C7.30333 3.94667 7.33333 4.06 7.33333 4.17667Z" fill="#9A9A9A"/>
</svg>
