<svg width="104" height="45" viewBox="0 0 104 45" fill="none" xmlns="http://www.w3.org/2000/svg">
<path fill-rule="evenodd" clip-rule="evenodd" d="M25.2143 0.0262198C25.006 0.0712678 24.6884 0.243815 24.5188 0.403978C24.3298 0.582483 24.1399 0.903633 24.0578 1.18354C24.0219 1.30573 23.915 1.76917 23.8202 2.21336C23.5343 3.55221 23.2841 4.70371 22.8453 6.70022C22.7651 7.06545 22.6235 7.71155 22.5307 8.13601C21.9167 10.9446 21.2641 13.8422 20.5826 16.7867C18.4772 25.8831 18.4596 25.9571 18.1251 27.1064C17.5496 29.0832 16.7495 30.9246 15.9707 32.0642C15.054 33.4054 13.9304 34.1584 12.5018 34.3886C10.8961 34.6474 9.65443 34.2842 8.7936 33.3037C8.27449 32.7125 8.1577 32.2293 8.11562 30.4985C8.08932 29.4166 8.17587 28.1627 8.35343 27.0526C8.771 24.4423 9.34161 21.8361 10.1437 18.8755C10.75 16.6377 11.2021 15.4029 11.8216 14.2933C12.8863 12.3862 13.8218 11.7367 15.905 11.4586C16.3368 11.4009 16.498 11.3368 16.6462 11.1635C16.7859 11.0001 16.8472 10.8342 16.8483 10.6161C16.8503 10.2756 16.7043 10.0093 16.4266 9.84669C16.3005 9.77282 16.2559 9.76944 15.4672 9.77382C12.5614 9.78994 9.92884 10.1979 8.18636 10.9021C6.69578 11.5045 5.57596 12.2736 4.53263 13.4117C3.77082 14.2427 3.19322 15.131 2.64841 16.3094C1.683 18.3975 0.969553 20.7288 0.459252 23.4631C0.267988 24.488 0.179121 25.0766 0.147724 25.5271C0.13535 25.7047 0.0970379 25.9698 0.0625965 26.1161C0.00519427 26.36 0 26.5346 0 28.2205C0 29.766 0.00751017 30.0657 0.0470466 30.1013C0.072919 30.1246 0.103754 30.2114 0.115598 30.2942C0.18812 30.8015 0.483701 31.7126 0.752482 32.2573C1.54966 33.8729 2.94512 34.9124 5.03767 35.4495C7.17548 35.9983 9.54088 36.2256 12.1731 36.1353C14.8557 36.0433 16.673 35.7681 18.4698 35.1819C21.4559 34.2078 23.3745 32.7088 24.9697 30.1036C25.7467 28.8347 26.524 27.0783 27.0825 25.3296C27.4668 24.1262 27.7104 23.1602 28.3363 20.3582C29.0524 17.1526 29.303 15.9974 29.8436 13.4126C30.9695 8.02937 31.0195 7.79896 31.7364 4.69011C32.332 2.10744 32.3366 2.08475 32.3369 1.69289C32.3372 1.3689 32.3241 1.26194 32.2638 1.09689C32.0971 0.63977 31.7431 0.259967 31.3269 0.0915125L31.1163 0.00626228L28.2379 0.000518972C26.6548 -0.00263977 25.2942 0.00895438 25.2143 0.0262198ZM68.5696 1.28347C67.7877 1.40975 67.1909 1.92462 66.9176 2.70864C66.8148 3.00355 66.83 2.93815 66.1205 6.1259C65.8019 7.55721 65.5044 8.8898 65.4593 9.08722C65.4142 9.28465 65.1087 10.6495 64.7803 12.1203C64.4519 13.5911 64.1389 14.9883 64.0847 15.2252C63.1206 19.4433 62.1304 23.9624 61.9888 24.7912C61.6198 26.9504 61.4884 29.2556 61.6379 30.9446C61.7904 32.666 62.5858 34.1469 63.8373 35.0392C64.5307 35.5335 65.0409 35.7152 66.451 35.9698C68.3752 36.3173 70.6383 36.3114 72.5734 35.9538C74.0567 35.6797 74.9219 35.4191 76.915 34.6459C77.5498 34.3996 77.9866 34.4323 78.6428 34.7751C79.0472 34.9863 79.772 35.3239 80.0283 35.4202C80.4724 35.5873 82.3996 35.9415 83.6055 36.0778C85.6095 36.3042 88.0015 36.2717 90.1205 35.9892C92.02 35.736 93.2231 35.4724 94.2845 35.0769C96.087 34.4053 97.474 33.477 98.7609 32.0807C99.5643 31.2091 100.059 30.5012 100.669 29.3499C101.96 26.9167 102.936 23.8032 103.602 19.9993C103.918 18.1935 103.999 17.386 104 16.0508C104.001 14.6777 103.903 13.8885 103.618 12.9639C103.252 11.7758 102.564 10.7517 101.67 10.064C100.402 9.08931 98.0658 8.38548 95.3341 8.1555C94.0711 8.04918 92.5407 8.03163 86.2357 8.05112C79.5476 8.0718 79.7932 8.06472 79.4653 8.24621C79.1588 8.41585 78.8338 8.90003 78.8278 9.19577C78.8219 9.48422 78.9517 9.61893 79.3014 9.68767C79.4196 9.7109 81.9818 9.73312 86.4012 9.7492C94.0056 9.77687 93.4637 9.75993 94.021 9.98754C94.8324 10.3188 95.4738 11.1085 95.6806 12.0306C95.8783 12.9115 95.8991 14.759 95.7277 16.2123C95.432 18.7204 94.2217 24.2945 93.3659 27.0896C92.9412 28.4766 92.6026 29.3851 92.0871 30.5205C91.0035 32.9074 89.6648 34.1189 87.7245 34.4686C87.2112 34.5611 86.3007 34.552 85.8553 34.4498C84.6964 34.1841 83.9901 33.468 83.6081 32.1716C83.4269 31.5566 83.3665 31.0809 83.3639 30.2472C83.361 29.3223 83.4335 28.5642 83.69 26.8372C83.9551 25.0531 84.2254 23.7421 85.2887 19.0839C85.8724 16.5271 86.1675 15.1559 86.4207 13.8253C86.5529 13.1304 86.5093 12.5655 86.2866 12.0873C86.0794 11.6424 86.2312 11.6668 83.4882 11.6368C81.1472 11.6111 79.1293 11.651 78.8652 11.7281C78.6898 11.7794 78.4907 11.9861 78.3731 12.2388C78.2144 12.5798 77.949 13.6947 76.5084 20.071C75.0976 26.3158 74.8376 27.3728 74.2082 29.4224C73.6368 31.283 73.1258 32.426 72.3855 33.4994C71.9427 34.1414 71.41 34.4444 70.6129 34.5076C70.2775 34.5342 70.2509 34.5179 69.9767 34.1183C69.7418 33.776 69.5998 33.4768 69.5286 33.1741C69.4608 32.8862 69.461 31.4553 69.5288 30.6062C69.648 29.114 69.8106 28.1221 70.3051 25.8681C70.5065 24.9503 70.783 23.67 70.9835 22.7273C71.0632 22.3522 71.2487 21.4799 71.3956 20.7889C71.5425 20.098 71.7216 19.258 71.7935 18.9224C71.8654 18.5868 72.0146 17.8841 72.1251 17.361C72.2355 16.8378 72.3914 16.1029 72.4716 15.7278C72.5517 15.3527 72.7016 14.65 72.8047 14.1663C73.0521 13.0049 73.5173 10.8572 73.8502 9.33849C73.9238 9.00287 74.22 7.6945 74.5085 6.43101C75.1536 3.60511 75.107 3.83595 75.1072 3.46426C75.1077 2.61327 74.706 1.88945 74.0357 1.53348C73.5064 1.25235 73.6417 1.26491 71.0663 1.25788C69.8016 1.2544 68.6781 1.26592 68.5696 1.28347ZM39.0317 4.04709C38.7088 4.12965 38.3731 4.41619 38.2037 4.75389C38.1227 4.91524 37.8317 6.01875 37.7472 6.4847C37.6872 6.81576 37.7203 7.25224 37.824 7.49773C37.9877 7.88536 38.3377 8.19725 38.7412 8.31516C38.9153 8.36599 43.3697 8.39901 44.1175 8.35501C44.6626 8.32292 44.8507 8.25224 45.121 7.97786C45.3454 7.75021 45.4446 7.53054 45.6088 6.89857C45.8249 6.06693 45.901 5.62255 45.8782 5.32703C45.8441 4.88617 45.6114 4.46803 45.2663 4.22778C44.9454 4.00437 44.9972 4.00775 41.9364 4.01169C40.4072 4.0137 39.1001 4.02961 39.0317 4.04709ZM38.0311 11.7974C37.0739 11.8207 37.0056 11.8328 36.7333 12.0284C36.4267 12.2485 36.2684 12.6485 35.9509 14.0048C35.8678 14.3602 35.4884 15.9754 35.1079 17.5943C34.7274 19.2132 34.2499 21.2465 34.0467 22.1129C33.0779 26.2442 32.4368 28.1933 31.3892 30.1934C30.6676 31.5711 29.9584 32.5691 28.9278 33.6572C26.8551 35.8457 24.1789 37.1415 20.5953 37.6919C19.0852 37.9239 18.4009 37.9694 16.0296 37.9959L14.0114 38.0185L13.828 38.1118C13.483 38.2873 13.2977 38.5307 13.2352 38.89C13.1708 39.2603 13.3249 39.5623 13.6229 39.6493C13.7906 39.6983 17.1953 39.7583 19.8344 39.7588C22.0723 39.7592 23.4751 39.7208 24.4828 39.6314C28.2529 39.297 31.6305 37.9793 34.9021 35.5666C35.6227 35.0351 35.6071 35.039 36.113 35.2632C38.1048 36.1458 40.7681 36.4774 43.8209 36.223C46.1821 36.0262 48.3404 35.5396 49.7792 34.8797C52.9103 33.4436 54.9749 30.8924 56.6073 26.4424C57.3145 24.5144 57.826 22.5358 58.7091 18.3122C59.058 16.6436 59.2765 15.6475 59.508 14.6689C59.7826 13.5087 59.7812 13.5161 59.7829 13.2079C59.7868 12.5203 59.5464 12.0423 59.122 11.8936C58.8135 11.7855 57.7969 11.755 54.9871 11.7696C52.0906 11.7847 52.1348 11.7816 51.8469 11.9883C51.5931 12.1706 51.5422 12.3183 51.0649 14.2561C50.8064 15.3057 50.2848 17.576 49.995 18.9134C49.902 19.3428 49.7498 20.0455 49.6568 20.4749C48.7757 24.5459 48.1079 27.1031 47.2363 29.7447C46.4093 32.2509 45.4712 33.7731 44.4269 34.3033C44.0589 34.4901 43.6114 34.5979 43.1225 34.6172C42.5225 34.641 42.218 34.5426 41.8933 34.22C41.5694 33.8983 41.3418 33.3402 41.2025 32.5265C41.1214 32.0528 41.1211 30.9532 41.202 30.1934C41.4679 27.693 41.8058 25.9038 43.0933 20.1787C43.3952 18.8363 43.694 17.4907 43.7574 17.1885C43.8208 16.8864 43.9895 16.1272 44.1323 15.5015C44.2751 14.8757 44.4185 14.1699 44.451 13.933C44.5315 13.3457 44.5339 12.7333 44.4567 12.4933C44.3337 12.111 44.0345 11.8638 43.6153 11.798C43.3753 11.7604 39.5694 11.7599 38.0311 11.7974ZM42.9938 40.5846C36.943 40.6043 37.3035 40.5922 37.0206 40.7841C36.7488 40.9684 36.6055 41.2285 36.377 41.9524C36.11 42.7981 36.0114 43.6164 36.1252 44.0417C36.2003 44.3225 36.4111 44.5432 36.7864 44.7342C36.9615 44.8233 37.1468 44.9196 37.1984 44.9481C37.2791 44.9929 38.1763 45 43.7012 45C47.3606 45 50.1239 44.9864 50.1418 44.9683C50.1591 44.9509 50.2998 44.9175 50.4544 44.8941C50.8597 44.8328 51.3187 44.7019 51.4073 44.6224C51.4412 44.5919 51.8923 43.0923 51.9817 42.7127C52.1276 42.0933 52.1353 41.6361 52.005 41.3344C51.9044 41.1018 51.7169 40.8633 51.5381 40.7409C51.2798 40.564 51.1336 40.5484 49.8271 40.5577C49.1622 40.5624 46.0872 40.5745 42.9938 40.5846Z" fill="#221E1F"/>
</svg>
